<svg xmlns = "http://www.w3.org/2000/svg" width = "1000" height = "1000">
<g>
<polygon points = "477.852, 522.048 452.033, 571.355 449.898, 591.726 649.229, 796.340 659.359, 792.859 777.698, 602.680 "
fill = "none" stroke = "black"/>
</g>
<g>
<polygon points = "777.698, 602.680 659.359, 792.859 853.380, 1000.000 1000.000, 1000.000 1000.000, 522.393 "
fill = "none" stroke = "black"/>
</g>
<g>
<polygon points = "0.000, 424.717 0.000, 1000.000 241.515, 1000.000 246.275, 594.751 "
fill = "none" stroke = "black"/>
</g>
<g>
<polygon points = "246.275, 594.751 241.515, 1000.000 275.815, 1000.000 341.110, 936.434 449.898, 591.726 452.033, 571.355 "
fill = "none" stroke = "black"/>
</g>
<g>
<polygon points = "659.359, 792.859 649.229, 796.340 532.253, 874.950 707.478, 1000.000 853.380, 1000.000 "
fill = "none" stroke = "black"/>
</g>
<g>
<polygon points = "0.000, 312.379 433.151, 336.646 726.007, 0.000 0.000, 0.000 "
fill = "none" stroke = "black"/>
</g>
<g>
<polygon points = "532.253, 874.950 649.229, 796.340 449.898, 591.726 341.110, 936.434 "
fill = "none" stroke = "black"/>
</g>
<g>
<polygon points = "532.253, 874.950 341.110, 936.434 275.815, 1000.000 707.478, 1000.000 "
fill = "none" stroke = "black"/>
</g>
<g>
<polygon points = "433.151, 336.646 0.000, 312.379 0.000, 424.717 246.275, 594.751 452.033, 571.355 477.852, 522.048 "
fill = "none" stroke = "black"/>
</g>
<g>
<polygon points = "433.151, 336.646 477.852, 522.048 777.698, 602.680 1000.000, 522.393 1000.000, 0.000 726.007, 0.000 "
fill = "none" stroke = "black"/>
</g>
<circle cx="586.501" cy="684.622" r="3" fill="red" />
<circle cx="788.647" cy="810.408" r="3" fill="red" />
<circle cx="194.164" cy="653.071" r="3" fill="red" />
<circle cx="297.002" cy="654.279" r="3" fill="red" />
<circle cx="668.422" cy="923.018" r="3" fill="red" />
<circle cx="304.365" cy="132.273" r="3" fill="red" />
<circle cx="539.190" cy="730.712" r="3" fill="red" />
<circle cx="621.980" cy="988.094" r="3" fill="red" />
<circle cx="282.342" cy="525.355" r="3" fill="red" />
<circle cx="653.387" cy="435.895" r="3" fill="red" />
</svg>
